<?xml version="1.0" encoding="iso-8859-1"?>
<!-- Generator: Adobe Illustrator 18.1.1, SVG Export Plug-In . SVG Version: 6.00 Build 0)  -->
<svg version="1.1" id="Capa_1" xmlns="http://www.w3.org/2000/svg" xmlns:xlink="http://www.w3.org/1999/xlink" x="0px" y="0px"
	 viewBox="0 0 51.344 51.344" style="enable-background:new 0 0 51.344 51.344;" xml:space="preserve">
<g>
	<g>
		<path style="fill:#010002;" d="M44.451,51.344c0.828,0,1.5-0.672,1.5-1.5v-13.09V1.5c0-0.828-0.672-1.5-1.5-1.5H6.894
			c-0.828,0-1.5,0.672-1.5,1.5v35.254v13.09c0,0.828,0.672,1.5,1.5,1.5C6.894,51.344,44.451,51.344,44.451,51.344z M42.951,48.344
			H8.394v-10.09h6.192c1.22,3.099,6.068,5.566,11.501,5.566c5.448,0,10.467-2.505,11.749-5.566h5.114L42.951,48.344L42.951,48.344z
			 M8.394,3h34.557v32.254H36.66c-0.828,0-1.5,0.672-1.5,1.5c0,1.392-3.831,4.066-9.072,4.066c-5.173,0-8.803-2.638-8.803-4.066
			c0-0.828-0.672-1.5-1.5-1.5H8.394V3z"/>
		<path style="fill:#010002;" d="M25.235,32.253c0.089,0.159,0.256,0.258,0.438,0.258h14.279c0.276,0,0.5-0.224,0.5-0.5
			c0-0.276-0.224-0.5-0.5-0.5H25.967l-1.244-2.242c-0.089-0.159-0.256-0.258-0.437-0.258h-11c-0.159,0-0.309,0.076-0.403,0.204
			l-1.833,2.5c-0.163,0.223-0.115,0.536,0.107,0.699c0.089,0.065,0.193,0.097,0.296,0.097c0.153,0,0.306-0.07,0.403-0.204
			l1.683-2.296h10.453L25.235,32.253z"/>
		<path style="fill:#010002;" d="M11.452,27.927c0.153,0,0.306-0.07,0.403-0.204l1.683-2.296h10.453l1.244,2.242
			c0.089,0.159,0.256,0.258,0.438,0.258h14.279c0.276,0,0.5-0.224,0.5-0.5s-0.224-0.5-0.5-0.5H25.967l-1.244-2.242
			c-0.089-0.159-0.256-0.258-0.437-0.258h-11c-0.159,0-0.309,0.076-0.403,0.204l-1.833,2.5c-0.163,0.223-0.115,0.536,0.107,0.699
			C11.245,27.896,11.349,27.927,11.452,27.927z"/>
		<path style="fill:#010002;" d="M11.452,23.343c0.153,0,0.306-0.07,0.403-0.204l1.683-2.296h10.453l1.244,2.242
			c0.089,0.159,0.256,0.258,0.438,0.258h14.279c0.276,0,0.5-0.224,0.5-0.5s-0.224-0.5-0.5-0.5H25.967l-1.244-2.242
			c-0.089-0.159-0.256-0.258-0.437-0.258h-11c-0.159,0-0.309,0.076-0.403,0.204l-1.833,2.5c-0.163,0.223-0.115,0.536,0.107,0.699
			C11.245,23.312,11.349,23.343,11.452,23.343z"/>
		<path style="fill:#010002;" d="M11.452,18.759c0.153,0,0.306-0.07,0.403-0.204l1.683-2.296h10.453l1.244,2.242
			c0.089,0.159,0.256,0.258,0.438,0.258h14.279c0.276,0,0.5-0.224,0.5-0.5s-0.224-0.5-0.5-0.5H25.967l-1.244-2.242
			c-0.089-0.159-0.256-0.258-0.437-0.258h-11c-0.159,0-0.309,0.076-0.403,0.204l-1.833,2.5c-0.163,0.223-0.115,0.536,0.107,0.699
			C11.245,18.728,11.349,18.759,11.452,18.759z"/>
		<path style="fill:#010002;" d="M11.452,14.175c0.153,0,0.306-0.07,0.403-0.204l1.683-2.296h10.453l1.244,2.242
			c0.089,0.159,0.256,0.258,0.438,0.258h14.279c0.276,0,0.5-0.224,0.5-0.5s-0.224-0.5-0.5-0.5H25.967l-1.244-2.242
			c-0.089-0.159-0.256-0.258-0.437-0.258h-11c-0.159,0-0.309,0.076-0.403,0.204l-1.833,2.5c-0.163,0.223-0.115,0.536,0.107,0.699
			C11.245,14.144,11.349,14.175,11.452,14.175z"/>
		<path style="fill:#010002;" d="M11.452,9.591c0.153,0,0.306-0.07,0.403-0.204l1.683-2.296h10.453l1.244,2.242
			c0.089,0.159,0.256,0.258,0.438,0.258h14.279c0.276,0,0.5-0.224,0.5-0.5s-0.224-0.5-0.5-0.5H25.967l-1.244-2.242
			c-0.089-0.159-0.256-0.258-0.437-0.258h-11c-0.159,0-0.309,0.076-0.403,0.204l-1.833,2.5c-0.163,0.223-0.115,0.536,0.107,0.699
			C11.245,9.56,11.349,9.591,11.452,9.591z"/>
	</g>
</g>
<g>
</g>
<g>
</g>
<g>
</g>
<g>
</g>
<g>
</g>
<g>
</g>
<g>
</g>
<g>
</g>
<g>
</g>
<g>
</g>
<g>
</g>
<g>
</g>
<g>
</g>
<g>
</g>
<g>
</g>
</svg>
