<?xml version="1.0" encoding="iso-8859-1"?>
<!-- Generator: Adobe Illustrator 16.0.0, SVG Export Plug-In . SVG Version: 6.00 Build 0)  -->
<!DOCTYPE svg PUBLIC "-//W3C//DTD SVG 1.1//EN" "http://www.w3.org/Graphics/SVG/1.1/DTD/svg11.dtd">
<svg version="1.1" id="Capa_1" xmlns="http://www.w3.org/2000/svg" xmlns:xlink="http://www.w3.org/1999/xlink" x="0px" y="0px"
	 width="190.171px" height="190.171px" viewBox="0 0 190.171 190.171" style="enable-background:new 0 0 190.171 190.171;"
	 xml:space="preserve">
<g>
	<path d="M172.964,81.884c-1.011-0.2-2.03-0.352-3.048-0.519c0.432-1.708,0.795-3.442,1.081-5.201
		c4.561-15.627,2.53-33.959-7.563-44.901c-1.413-1.532-3.203-0.653-3.849,0.817c-7.146,3.08-12.095,7.997-15.025,14.896
		c-10.289-3.857-21.134-3.447-31.812-1.383c-1.273,0.246-4.312,1.744-7.075,2.7c-0.74,0.071-1.266,0.041-1.438-0.147
		c-3.995-4.377-8.798-8.464-11.153-14.065c-0.778-1.85-3.432-1.523-3.679,0.116c-0.508-0.566-0.967-1.165-1.516-1.703
		c-1.73-1.694-4.102-0.693-4.926,1.301c-1.701,4.114-2.6,8.737-3.176,13.413c-1.586,5.082-1.958,10.501-1.403,15.93
		c-0.086,1.028-0.157,2.133-0.209,3.298c-2.918-0.242-5.844-0.507-8.798-0.762c-1.969-0.169-2.425,3.143-0.468,3.457
		c3.04,0.489,6.127,0.901,9.229,1.238c0.026,0.682,0.097,1.345,0.165,2.01c-1.909-1.021-4.121-1.756-6.844-2.129
		c-1.958-0.269-3.183,1.663-1.894,3.253c0.594,0.732,1.143,1.483,1.677,2.24c0.092,2.615,0.43,5.038,1.11,7.415
		c-4.475-0.588-8.957-1.121-13.396-2.007c-1.06-0.212-2.066,0.475-2.424,1.362c-1.995,0.078-3.317,2.749-2.205,4.392
		c0.935,1.382,1.854,2.626,2.859,3.785c-2.387,0.942-4.845,2.296-7.109,3.786c-16.274-8.456-25.232,9.215-29.521,26.37
		c-0.835,3.059-1.471,5.864-1.914,8.071c-1.91,9.514-4.916,25.915,2.02,34.164c2.19,2.605,4.936,4.617,7.85,5.874
		c2.731,1.635,5.346,1.979,7.693,1.394c4.215-0.337,8.101-2.655,10.577-7.516c6.137,6.918,14.153,12.098,23.7,14.333
		c6.522,1.527,13.253,1.235,19.72-0.396c-0.05,0.375-0.023,0.77,0.173,1.166c5.446,11.02,19.21,16.171,29.53,8.76
		c3.983-2.86,5.863-7.242,4.289-11.968c-1.068-3.206-3.609-5.734-6.271-8.053c14.114,8.073,19.948-14.518,21.36-27.188
		c1.938-7.866,2.584-17.781,0.827-26.528c0.189-0.021,0.36,0.005,0.56-0.049c10.683-2.893,18.296-9.185,23.329-17.277
		c1.693,0.504,3.381,1.026,5.089,1.474c1.966,0.513,2.755-2.416,0.833-3.023c-1.428-0.451-2.865-0.875-4.301-1.305
		c1.452-2.77,2.629-5.711,3.56-8.77c1.15,0.115,2.3,0.245,3.454,0.308C174.022,84.392,174.334,82.158,172.964,81.884z
		 M83.678,70.872c4.625,0.297,9.26,0.281,13.841-0.179c-0.057,0.047-0.115,0.089-0.171,0.135c-0.928-0.128-1.943,0.129-2.707,0.748
		c-2.091,1.696-3.998,3.516-5.711,5.511c-0.736,0.532-1.46,1.083-2.183,1.636c-0.465-0.303-0.932-0.601-1.398-0.899
		c-0.68-2.108-1.257-4.216-1.709-6.322C83.649,71.293,83.667,71.082,83.678,70.872z M40.504,159.821
		c-11.927,11.414-16.768-7.988-16.453-16.703c0.227-6.267,1.23-12.479,2.545-18.598c2.209-10.28,5.715-24.505,16.793-24.803
		c-0.101,0.097-0.225,0.202-0.321,0.297c-7.622,7.462-9.577,16.475-9.612,26.877c-0.036,10.685,3.046,21.081,8.589,29.721
		C41.54,157.668,41.047,158.775,40.504,159.821z M116.714,177.86c-0.073,0.422-0.186,0.837-0.331,1.238
		c0.178-0.489-0.279,0.511-0.388,0.688c-0.379,0.629-0.117,0.24-0.492,0.67c-0.769,0.883-0.964,0.996-1.851,1.549
		c-1.443,0.899-3.253,1.417-4.828,1.532c-1.396,0.103-2.758-0.049-4.051-0.406c-0.771-0.249-1.533-0.555-2.284-0.908
		c-1.65-0.882-3.115-2.174-4.254-3.9c-0.744-1.128-1.305-2.32-1.794-3.544c2.088-0.831,4.128-1.793,6.1-2.889
		c1.892,3.427,4.689,6.323,8.257,8.025c1.582,0.755,3.399-1.227,1.966-2.549c-2.609-2.405-5.355-4.431-7.354-7.207
		c1.096-0.701,2.161-1.438,3.202-2.214c0.846,0.49,1.676,1.006,2.484,1.558c2.145,1.464,4.04,3.262,5.165,5.558
		c0.084,0.171,0.19,0.483,0.331,0.998c0.041,0.15,0.066,0.306,0.097,0.46c-0.004,0.021,0.041,0.348,0.045,0.41
		C116.743,177.082,116.703,177.742,116.714,177.86z M70.782,168.26c-22.94-4.978-34.417-41.305-24.87-61.08
		c4.635-4.868,14.22-7.185,17.526-12.533c1.855-0.213,3.811-0.287,5.937-0.119c1.767,0.14,2.768-2.368,1.457-3.52
		c-0.77-0.676-1.56-1.324-2.34-1.988c2.636,0.043,5.275,0.038,7.923-0.033c1.004-0.027,1.767-0.514,2.23-1.203
		c0.397,0.07,0.795,0.125,1.192,0.201c1.413,0.271,3.123-1.27,2.08-2.706c-1.129-1.557-2.146-3.157-3.145-4.764
		c2.672,1.628,5.306,3.316,7.91,5.073c1.328,0.896,3.198,0.247,3.977-1.043c1.047-1.734,2.284-3.267,3.648-4.68
		c0.057,1.823,0.142,3.738,0.472,5.45c-1.552,1.337-1.993,4.018,0.324,5.283c13.086,7.146,22.021,20.362,24.367,34.725
		c-0.03,3.529-0.48,7.238-1.367,11.121C113.15,158.13,92.916,173.063,70.782,168.26z M133.685,131.39
		c-0.086,3.307-0.365,8.259-1.206,13.22c-3.301,9.216-8.774,19.368-13.804,13.57c2.76-3.528,5.028-7.363,6.605-11.413
		c3.021-7.754,2.96-16.31,0.851-24.625c-0.39-7.802-2.691-15.425-6.817-22.163c-0.121-0.198-0.264-0.379-0.391-0.573
		c5.759,1.649,9.838,3.9,12.562,11.08C133.98,117.062,133.866,124.467,133.685,131.39z M164.561,68.871
		c-9.779,1.497-19.511,2.345-29.476,2.677c-0.743,0.025-0.744,1.132,0,1.155c9.618,0.313,19.674,0.963,29.225-0.811
		c-0.331,2.986-0.958,5.738-1.839,8.292c-8.058-1.094-16.193-1.777-24.256-2.57c-0.864-0.085-1.055,1.353-0.205,1.513
		c7.71,1.449,15.476,2.974,23.282,4.034c-1.151,2.564-2.572,4.927-4.223,7.128c-6.186-1.733-12.402-3.373-18.607-4.982
		c-1.173-0.305-1.642,1.438-0.496,1.803c5.704,1.813,11.367,3.811,17.058,5.71c-0.091,0.104-0.177,0.21-0.269,0.312
		c-4.493,4.505-10.54,7.744-18.456,9.013c-0.041,0.007-0.066,0.028-0.104,0.038c-4.045-6.888-10.845-11.251-21.448-10.023
		c-0.62,0.072-1.107,0.453-1.433,0.932c-1.73-1.513-3.569-2.907-5.48-4.171c-2.269-1.5-7.224-1.663-6.2-5.096
		c0.471-1.581,0.519-3.311,0.401-5.062c1.925-0.724,3.758-1.729,5.307-2.796c0.737-0.509,0.304-1.799-0.637-1.508
		c-1.66,0.515-3.312,0.99-4.978,1.4c-0.177-1.286-0.376-2.55-0.506-3.733c-0.088-0.801-0.499-1.403-1.048-1.753
		c2.905-0.412,5.786-0.99,8.614-1.853c1.43-0.437,0.803-2.374-0.6-2.175c-8.169,1.161-16.154,1.029-24.18,0.508
		c0.248-2.341,0.55-4.638,0.738-6.755c0.48-5.433,0.574-11.563,1.653-17.25c0.316-0.683,0.621-1.366,0.978-2.043
		c3.82,4.807,6.959,10.167,11.027,14.807c1.012,1.154,2.614,1.065,3.876,0.5c3.13-1.401,6.363-2.561,9.651-3.471
		c9.268-1.776,18.154-1.438,27.661-0.612c1.296,0.333,2.59,0.688,3.869,1.134c0.897,1.039,2.796,1.179,3.765-0.226
		c3.149-4.564,11.646-15.868,15.095-5.259C164.557,54.562,164.92,61.725,164.561,68.871z"/>
	<path d="M108.108,116.119c-19.49,3.712-35.695,6.438-55.607,3.288c-1.578-0.249-2.271,1.965-0.673,2.44
		c1.8,0.534,3.664,0.962,5.534,1.376c-1.484,4.164,0.505,8.717,4.959,10.226c6.112,2.07,13.945-0.585,17.604-5.883
		c0.783-1.134-0.732-2.523-1.844-1.844c-4.003,2.445-7.206,4.934-12.129,4.964c-4.698,0.027-6.436-3.148-6.849-7.06
		c2.44,0.484,4.929,0.845,7.441,1.115c0.138,1.236,0.275,2.472,0.413,3.709c0.122,1.097,1.583,1.097,1.705,0
		c0.131-1.175,0.262-2.35,0.392-3.524c6.107,0.483,12.327,0.414,18.434-0.346c0.762,3.731,2.472,7.215,6.51,8.287
		c5.003,1.328,10.027-3.075,12.477-6.893c0.834-1.301-0.969-2.485-2.03-1.566c-2.698,2.334-5.558,5.529-9.402,5.51
		c-2.83-0.014-4.384-2.973-5.247-5.635c2.209-0.336,4.383-0.786,6.537-1.29c-0.137,0.206-0.232,0.447-0.199,0.766
		c0.055,0.521,0.11,1.043,0.165,1.564c0.168,1.592,2.307,1.592,2.475,0c0.055-0.521,0.11-1.043,0.165-1.564
		c0.067-0.634-0.29-1.032-0.762-1.222c3.818-0.991,7.53-2.228,11.032-3.802C110.78,118.027,109.598,115.835,108.108,116.119z"/>
	<path d="M86.585,145.304c-3.056,0.2-6.191,0.375-9.097,1.394c-1.727-1.314-4.253,0.052-4.945,1.909
		c-0.819,2.199,0.655,5.117,1.538,7.086c1.303,2.904,3.453,5.281,6.019,7.116c1.647,1.179,3.856,0.214,4.858-1.274
		c2.534-3.761,4.165-7.326,4.989-11.817C90.328,147.635,89.013,145.144,86.585,145.304z"/>
	<path d="M136.65,87.769c-2.525,0.031-4.98,0.5-7.461-0.187c-1.502-0.415-2.653-1.233-3.559-2.288
		c0.512-0.338,0.961-0.799,1.189-1.477c1.344-3.969,3.093-7.407,3.132-11.692c0.014-1.375-1.235-2.81-2.689-2.689
		c-1.303,0.107-2.531,0.05-3.823-0.005c-0.192-0.009-0.373,0.026-0.548,0.073c-0.598-0.913-1.52-1.407-2.942-0.749
		c-2.299,1.065-1.821,4.319-1.581,6.357c0.28,2.377,0.941,4.621,1.936,6.744c-0.435,0.199-0.748,0.61-0.701,1.22
		c0.064,0.85,0.347,4.146-0.759,4.223c-0.77,0.055-1.56-0.354-2.226-0.691c-1.346-0.679-2.632-1.467-3.986-2.136
		c-2.021-0.997-4.053,1.447-2.434,3.152c2.331,2.455,6.21,4.668,9.724,3.669c2.628-0.748,3.186-3.139,3.006-5.515
		c2.653,5.113,8.616,7.693,14.515,4.91C138.889,90.006,138.138,87.749,136.65,87.769z"/>
	<path d="M120.553,20.203c-8.458-5.594-17.283-11.105-24.732-18.031c-1.12-1.041-2.443-1.363-3.68-1.198
		c-0.69-0.438-1.496-0.762-2.428-0.881C78.182-1.379,64.295,14.995,56.745,22.038c-5.117,4.773-10.251,10.903-16.267,14.548
		c-3.271,1.982-7.37,4.951-9.311,8.268c-2.236,3.819,1.409,7.897,5.426,7.059c8.301-1.733,17.638-11.731,23.511-17.105
		c5.704-5.221,11.311-10.524,17.236-15.497c3.937-3.306,9.234-5.48,13.238-8.726c4.789,6.558,11.833,11.505,18.3,16.193
		c4.695,3.403,9.605,6.531,14.428,9.751c3.491,2.331,7.016,6.039,11.502,4.282c2.097-0.821,3.468-2.327,3.554-4.667
		C138.631,28.764,125.795,23.671,120.553,20.203z"/>
</g>
<g>
</g>
<g>
</g>
<g>
</g>
<g>
</g>
<g>
</g>
<g>
</g>
<g>
</g>
<g>
</g>
<g>
</g>
<g>
</g>
<g>
</g>
<g>
</g>
<g>
</g>
<g>
</g>
<g>
</g>
</svg>
